<?xml version="1.0" standalone="no"?>
<!DOCTYPE svg PUBLIC "-//W3C//DTD SVG 20010904//EN"
 "http://www.w3.org/TR/2001/REC-SVG-20010904/DTD/svg10.dtd">
<svg version="1.0" xmlns="http://www.w3.org/2000/svg"
 width="460.000000pt" height="460.000000pt" viewBox="0 0 460.000000 460.000000"
 preserveAspectRatio="xMidYMid meet">
<metadata>
Created by potrace 1.11, written by Peter Selinger 2001-2013
</metadata>
<g transform="translate(0.000000,460.000000) scale(0.100000,-0.100000)"
fill="#000000" stroke="none">
<path d="M2140 4249 c-122 -14 -279 -58 -370 -102 -35 -17 -154 -88 -160 -96
-3 -4 -28 -24 -57 -44 -46 -34 -173 -166 -173 -181 0 -7 -39 -53 -62 -75 -10
-8 -18 -20 -18 -26 0 -5 -25 -62 -56 -125 -75 -152 -113 -279 -121 -402 l-6
-96 -56 -27 c-144 -70 -328 -229 -385 -333 -61 -110 -96 -193 -123 -292 -26
-96 -28 -120 -28 -275 0 -162 1 -174 29 -250 16 -44 39 -96 52 -115 13 -19 24
-39 24 -45 0 -6 -28 -29 -62 -52 -65 -43 -177 -146 -204 -188 -9 -14 -13 -33
-9 -44 5 -18 72 -56 154 -88 22 -8 24 -15 25 -76 1 -44 6 -71 16 -81 20 -20
166 -54 264 -62 l79 -6 -6 -186 c-6 -186 -24 -308 -60 -409 -27 -72 -30 -124
-10 -163 22 -43 87 -93 150 -115 26 -9 60 -22 75 -27 l27 -10 -6 -129 c-5
-115 -4 -129 10 -129 14 0 17 17 19 123 l3 122 60 -1 c33 -1 170 3 305 9 262
10 286 8 535 -43 260 -54 462 -49 816 21 52 10 156 23 230 29 74 6 162 14 196
19 70 10 248 85 272 114 20 23 64 47 89 47 20 0 31 -41 56 -198 6 -40 16 -71
21 -70 16 5 8 104 -14 201 l-21 89 26 20 c44 35 45 53 8 198 -19 74 -43 180
-55 235 -11 55 -29 127 -40 159 -10 33 -19 64 -19 70 0 6 19 22 42 36 22 14
62 39 88 55 27 17 62 38 79 47 27 15 31 22 31 61 0 24 -5 59 -11 76 -11 32
-11 34 55 93 71 64 96 101 96 142 0 41 -55 64 -197 81 l-52 7 44 56 c23 32 50
74 58 95 l16 38 33 -17 c52 -27 206 -21 272 10 100 48 174 159 202 303 18 94
18 142 0 236 -37 191 -156 331 -267 313 -21 -3 -40 -3 -43 2 -2 4 -11 59 -20
122 -17 119 -49 228 -109 365 -42 97 -99 209 -109 213 -5 2 -8 8 -8 13 0 5
-15 31 -33 57 -107 157 -187 240 -360 375 -134 105 -413 242 -577 282 -36 9
-81 21 -100 26 -102 27 -397 37 -550 18z m-499 -240 c-47 -21 -67 -18 -35 6
10 8 33 14 49 14 29 0 28 -1 -14 -20z m684 0 c39 -5 140 -19 225 -30 144 -18
300 -45 308 -54 2 -2 -12 -11 -31 -20 -53 -25 -147 -105 -183 -156 -98 -136
-49 -236 111 -226 60 3 83 10 158 50 146 77 197 65 350 -83 81 -77 101 -89
147 -90 56 0 103 38 123 100 22 69 21 92 -7 175 -14 38 -23 71 -21 73 12 12
48 -19 107 -91 118 -145 116 -142 168 -342 55 -213 74 -365 68 -532 -3 -80 0
-104 10 -108 8 -3 42 11 77 30 118 66 196 55 267 -40 61 -81 90 -171 95 -300
5 -100 3 -117 -22 -190 -33 -99 -65 -151 -119 -191 -57 -43 -107 -58 -202 -58
-72 -1 -85 2 -122 27 -45 30 -67 28 -58 -6 6 -26 -32 -100 -82 -156 -36 -41
-42 -45 -83 -43 -61 3 -94 -16 -94 -53 0 -27 -5 -31 -70 -53 -133 -46 -430
-106 -705 -142 -80 -11 -179 -24 -220 -29 -257 -35 -867 -48 -1065 -22 -446
58 -729 195 -842 407 -35 66 -73 226 -73 306 0 55 20 198 39 280 23 100 98
266 147 328 104 129 266 254 381 294 l38 13 6 114 c5 91 13 133 38 206 35 101
88 220 102 229 5 3 23 -9 40 -27 28 -31 32 -32 92 -27 71 6 129 32 253 115 45
30 98 57 118 60 36 6 39 3 144 -106 97 -100 112 -111 143 -111 26 0 43 8 65
31 27 29 29 35 28 112 -1 131 -61 261 -152 331 l-37 28 135 -7 c74 -3 167 -11
205 -16z m-1659 -2293 c6 -17 -36 -95 -78 -144 -42 -49 -38 -66 8 -36 19 13
30 15 49 6 25 -12 25 -18 -1 -103 l-15 -46 -42 10 c-73 17 -174 57 -191 75
-14 17 -14 20 1 43 44 63 217 207 251 208 7 1 15 -5 18 -13z m3157 -22 c90
-21 102 -34 76 -78 -25 -42 -116 -127 -184 -172 -29 -19 -37 -14 -54 35 -17
51 -14 91 7 97 65 20 64 49 -3 73 -107 38 -131 51 -115 62 19 13 184 3 273
-17z m-3075 -36 c47 -33 76 -58 70 -59 -84 -14 -175 -25 -180 -22 -4 2 6 23
23 47 16 24 29 49 29 55 0 17 8 14 58 -21z m2911 -44 c3 -2 -5 -11 -17 -20
-51 -36 -5 -191 81 -274 17 -17 15 -20 -59 -69 -42 -28 -80 -51 -84 -51 -3 0
-17 -12 -30 -27 -20 -23 -21 -30 -12 -57 14 -41 58 -216 77 -308 8 -40 27
-117 41 -171 22 -79 24 -100 14 -112 -7 -9 -49 -33 -94 -54 -45 -21 -88 -46
-96 -56 -19 -23 -113 -69 -190 -93 -39 -12 -113 -22 -185 -27 -139 -8 -197
-15 -390 -51 -111 -21 -182 -27 -345 -31 -201 -5 -208 -4 -360 27 -245 50
-248 51 -560 44 -183 -4 -318 -2 -355 4 -84 14 -171 49 -211 84 -54 48 -58 81
-23 217 17 64 37 154 44 201 19 111 20 384 3 398 -7 5 -67 14 -133 20 -130 12
-185 26 -185 48 0 8 4 14 9 14 20 0 87 180 93 255 3 29 4 30 92 41 81 11 93
10 130 -6 143 -64 309 -108 511 -137 260 -36 892 -18 1257 36 144 22 207 32
283 45 122 21 286 54 325 65 19 5 64 17 100 26 74 19 151 45 164 56 7 6 91
-23 105 -37z m101 -209 c31 -81 17 -99 -35 -45 l-28 29 24 20 c30 25 28 26 39
-4z m-3140 -42 c0 -12 -44 -83 -52 -83 -9 0 -10 45 -2 76 4 16 11 20 30 16 13
-2 24 -7 24 -9z"/>
<path d="M1224 2965 c-11 -29 8 -35 104 -35 53 -1 167 -7 252 -15 85 -9 206
-18 268 -22 98 -5 112 -4 112 10 0 9 -4 18 -8 21 -14 8 -579 55 -670 56 -37 0
-54 -4 -58 -15z"/>
<path d="M2654 2825 c-4 -9 -3 -20 2 -24 5 -5 74 -14 154 -20 80 -7 186 -16
235 -22 160 -17 430 -36 443 -32 20 8 14 30 -10 36 -13 3 -93 11 -178 17 -85
6 -161 13 -168 15 -7 3 -83 11 -170 19 -311 29 -302 29 -308 11z"/>
<path d="M3970 2385 c-76 -17 -104 -32 -124 -67 -24 -39 -6 -60 18 -22 15 22
23 25 48 20 78 -15 140 -74 155 -146 3 -17 12 -30 20 -30 11 0 13 8 8 33 -17
77 -59 130 -125 157 -47 20 -19 30 83 30 92 0 112 12 50 29 -46 13 -62 13
-133 -4z"/>
<path d="M2745 1839 c-182 -7 -1146 -27 -1545 -32 -146 -1 -273 -7 -283 -11
-26 -12 -41 -56 -25 -71 31 -29 94 -37 368 -47 249 -9 304 -8 435 6 292 34
505 46 900 51 404 6 824 29 858 47 26 14 18 51 -13 59 -31 9 -476 7 -695 -2z
m620 -28 l50 -9 -60 -2 c-33 -1 -69 -3 -80 -5 -67 -11 -446 -27 -516 -22 -167
11 -814 -17 -979 -43 -89 -14 -327 -22 -310 -10 11 7 7 10 -20 10 -26 0 -31
-3 -20 -10 18 -12 -21 -12 -280 -1 -102 5 -193 12 -202 16 -17 7 -14 35 4 35
5 0 6 -5 3 -10 -4 -6 12 -9 42 -9 l48 2 -40 7 c-22 4 82 8 230 9 553 3 1057
12 1270 22 121 6 303 13 405 16 102 2 186 5 187 6 7 7 228 5 268 -2z"/>
<path d="M1368 1723 c7 -3 16 -2 19 1 4 3 -2 6 -13 5 -11 0 -14 -3 -6 -6z"/>
<path d="M4353 130 c0 -30 2 -43 4 -28 2 16 2 40 0 55 -2 16 -4 3 -4 -27z"/>
<path d="M4172 150 c0 -14 2 -19 5 -12 2 6 2 18 0 25 -3 6 -5 1 -5 -13z"/>
<path d="M2220 110 c0 -64 12 -110 27 -110 13 0 14 10 8 58 -8 68 -35 108 -35
52z"/>
<path d="M3688 65 c-11 -11 5 -65 19 -65 11 0 14 6 9 22 -3 13 -6 29 -6 36 0
12 -12 16 -22 7z"/>
</g>
</svg>
